<svg width="101" height="107" viewBox="0 0 101 107" fill="none" xmlns="http://www.w3.org/2000/svg">
<path d="M98.4585 78.1658L50.7295 103.346L3 78.1658V28.181L50.7295 3L98.4585 28.181V78.1658Z" stroke="#13293D" stroke-width="5"/>
<path d="M90.96 74.3557L50.7302 95.5799L10.5 74.3557V32.2246L50.7302 11L90.96 32.2246V74.3557Z" fill="#13293D"/>
<path d="M68.875 39.625H33.125C32.2275 39.625 31.5 40.3525 31.5 41.25V67.25C31.5 68.1475 32.2275 68.875 33.125 68.875H68.875C69.7725 68.875 70.5 68.1475 70.5 67.25V41.25C70.5 40.3525 69.7725 39.625 68.875 39.625Z" stroke="#E8F1F2" stroke-width="3" stroke-linecap="round" stroke-linejoin="round"/>
<path d="M59.125 39.625V36.375C59.125 35.513 58.7826 34.6864 58.1731 34.0769C57.5636 33.4674 56.737 33.125 55.875 33.125H46.125C45.263 33.125 44.4364 33.4674 43.8269 34.0769C43.2174 34.6864 42.875 35.513 42.875 36.375V39.625" stroke="#E8F1F2" stroke-width="3" stroke-linecap="round" stroke-linejoin="round"/>
<path d="M70.5 50.6547C64.5734 54.0823 57.8464 55.8831 51 55.875C44.1524 55.8928 37.4229 54.0913 31.5 50.6547" stroke="#E8F1F2" stroke-width="3" stroke-linecap="round" stroke-linejoin="round"/>
<path d="M48.5625 49.375H53.4375" stroke="#E8F1F2" stroke-width="3" stroke-linecap="round" stroke-linejoin="round"/>
</svg>
