<svg width="101" height="107" viewBox="0 0 101 107" fill="none" xmlns="http://www.w3.org/2000/svg">
<path d="M98.4585 78.1658L50.7295 103.346L3 78.1658V28.181L50.7295 3L98.4585 28.181V78.1658Z" stroke="#13293D" stroke-width="5"/>
<path d="M90.96 74.3557L50.7302 95.5799L10.5 74.3557V32.2246L50.7302 11L90.96 32.2246V74.3557Z" fill="#13293D"/>
<path d="M44.5 59.5H33.125C32.694 59.5 32.2807 59.3288 31.976 59.024C31.6712 58.7193 31.5 58.306 31.5 57.875V48.125C31.5 47.694 31.6712 47.2807 31.976 46.976C32.2807 46.6712 32.694 46.5 33.125 46.5H44.5V35.125C44.5 34.694 44.6712 34.2807 44.976 33.976C45.2807 33.6712 45.694 33.5 46.125 33.5H55.875C56.306 33.5 56.7193 33.6712 57.024 33.976C57.3288 34.2807 57.5 34.694 57.5 35.125V46.5H68.875C69.306 46.5 69.7193 46.6712 70.024 46.976C70.3288 47.2807 70.5 47.694 70.5 48.125V57.875C70.5 58.306 70.3288 58.7193 70.024 59.024C69.7193 59.3288 69.306 59.5 68.875 59.5H57.5V70.875C57.5 71.306 57.3288 71.7193 57.024 72.024C56.7193 72.3288 56.306 72.5 55.875 72.5H46.125C45.694 72.5 45.2807 72.3288 44.976 72.024C44.6712 71.7193 44.5 71.306 44.5 70.875V59.5Z" stroke="#E8F1F2" stroke-width="3" stroke-linecap="round" stroke-linejoin="round"/>
</svg>
