<svg width="101" height="107" viewBox="0 0 101 107" fill="none" xmlns="http://www.w3.org/2000/svg">
<path d="M98.4585 78.1658L50.7295 103.346L3 78.1658V28.181L50.7295 3L98.4585 28.181V78.1658Z" stroke="#13293D" stroke-width="5"/>
<path d="M90.96 74.3557L50.7302 95.5799L10.5 74.3557V32.2246L50.7302 11L90.96 32.2246V74.3557Z" fill="#13293D"/>
<path d="M55.875 69.25V59.5C55.875 59.069 55.7038 58.6557 55.399 58.351C55.0943 58.0462 54.681 57.875 54.25 57.875H47.75C47.319 57.875 46.9057 58.0462 46.601 58.351C46.2962 58.6557 46.125 59.069 46.125 59.5V69.25C46.125 69.681 45.9538 70.0943 45.649 70.3991C45.3443 70.7038 44.931 70.875 44.5 70.875H34.75C34.319 70.875 33.9057 70.7038 33.601 70.3991C33.2962 70.0943 33.125 69.681 33.125 69.25V50.4609C33.1286 50.2361 33.1772 50.0142 33.2679 49.8084C33.3586 49.6025 33.4896 49.4169 33.6531 49.2625L49.9031 34.4953C50.2027 34.2213 50.594 34.0693 51 34.0693C51.406 34.0693 51.7973 34.2213 52.0969 34.4953L68.3469 49.2625C68.5104 49.4169 68.6414 49.6025 68.7321 49.8084C68.8228 50.0142 68.8714 50.2361 68.875 50.4609V69.25C68.875 69.681 68.7038 70.0943 68.399 70.3991C68.0943 70.7038 67.681 70.875 67.25 70.875H57.5C57.069 70.875 56.6557 70.7038 56.351 70.3991C56.0462 70.0943 55.875 69.681 55.875 69.25Z" stroke="#E8F1F2" stroke-width="3" stroke-linecap="round" stroke-linejoin="round"/>
</svg>
