<svg width="101" height="107" viewBox="0 0 101 107" fill="none" xmlns="http://www.w3.org/2000/svg">
<path d="M98.4585 78.1658L50.7295 103.346L3 78.1658V28.181L50.7295 3L98.4585 28.181V78.1658Z" stroke="#13293D" stroke-width="5"/>
<path d="M90.96 74.3557L50.7302 95.5799L10.5 74.3557V32.2246L50.7302 11L90.96 32.2246V74.3557Z" fill="#13293D"/>
<path d="M41.25 35.125H34.75C33.8525 35.125 33.125 35.8525 33.125 36.75V69.25C33.125 70.1475 33.8525 70.875 34.75 70.875H41.25C42.1475 70.875 42.875 70.1475 42.875 69.25V36.75C42.875 35.8525 42.1475 35.125 41.25 35.125Z" stroke="#E8F1F2" stroke-width="3" stroke-linecap="round" stroke-linejoin="round"/>
<path d="M33.125 43.25H42.875" stroke="#E8F1F2" stroke-width="3" stroke-linecap="round" stroke-linejoin="round"/>
<path d="M51 35.125H44.5C43.6025 35.125 42.875 35.8525 42.875 36.75V69.25C42.875 70.1475 43.6025 70.875 44.5 70.875H51C51.8975 70.875 52.625 70.1475 52.625 69.25V36.75C52.625 35.8525 51.8975 35.125 51 35.125Z" stroke="#E8F1F2" stroke-width="3" stroke-linecap="round" stroke-linejoin="round"/>
<path d="M42.875 62.75H52.625" stroke="#E8F1F2" stroke-width="3" stroke-linecap="round" stroke-linejoin="round"/>
<path d="M60.6557 34.5932L54.3507 36.2832C53.4801 36.5166 52.9636 37.4114 53.1969 38.282L61.6469 69.807C61.8803 70.6775 62.7751 71.1941 63.6457 70.9607L69.9507 69.2707C70.8212 69.0374 71.3378 68.1425 71.1044 67.272L62.6544 35.747C62.4211 34.8764 61.5262 34.3599 60.6557 34.5932Z" stroke="#E8F1F2" stroke-width="3" stroke-linecap="round" stroke-linejoin="round"/>
<path d="M59.7749 63.4L69.1999 60.8609" stroke="#E8F1F2" stroke-width="3" stroke-linecap="round" stroke-linejoin="round"/>
<path d="M54.7373 44.55L64.1623 42.0312" stroke="#E8F1F2" stroke-width="3" stroke-linecap="round" stroke-linejoin="round"/>
</svg>
