<svg width="47" height="46" viewBox="0 0 47 46" fill="none" xmlns="http://www.w3.org/2000/svg">
<path d="M23.5 46L0 34.5V11.5L23.5 0L47 11.5V34.5L23.5 46Z" fill="#13293D"/>
<path d="M26.0527 9L25.6333 29.0597L21.6099 29.0696L21.0723 9.01225L26.0527 9ZM21 35.2234C20.9982 34.5073 21.2311 33.9077 21.6987 33.4248C22.1793 32.9288 22.8427 32.6798 23.6891 32.6777C24.5224 32.6757 25.1806 32.9215 25.6635 33.4151C26.1465 33.8957 26.3889 34.494 26.3906 35.2102C26.3923 35.9003 26.1529 36.4933 25.6723 36.9893C25.1917 37.4722 24.5348 37.7147 23.7015 37.7168C22.8551 37.7189 22.1904 37.4796 21.7075 36.999C21.2375 36.5054 21.0017 35.9135 21 35.2234Z" fill="#E8F1F2"/>
</svg>
