<svg width="47" height="46" viewBox="0 0 47 46" fill="none" xmlns="http://www.w3.org/2000/svg">
<path d="M23.5 46L0 34.5V11.5L23.5 0L47 11.5V34.5L23.5 46Z" fill="#13293D"/>
<path d="M23.5 20.1562V24.0625" stroke="#E8F1F2" stroke-width="2" stroke-linecap="round" stroke-linejoin="round"/>
<path d="M22.1522 13.9063L13.5585 28.75C13.4216 28.9871 13.3494 29.2561 13.3491 29.5299C13.3489 29.8037 13.4206 30.0728 13.5571 30.3101C13.6936 30.5475 13.89 30.7448 14.1268 30.8824C14.3636 31.0199 14.6323 31.0928 14.9061 31.0938H32.0936C32.3674 31.0928 32.6362 31.0199 32.8729 30.8824C33.1097 30.7448 33.3062 30.5475 33.4427 30.3101C33.5791 30.0728 33.6509 29.8037 33.6506 29.5299C33.6504 29.2561 33.5782 28.9871 33.4413 28.75L24.8475 13.9063C24.7116 13.6688 24.5154 13.4715 24.2788 13.3343C24.0421 13.197 23.7734 13.1248 23.4999 13.1248C23.2263 13.1248 22.9576 13.197 22.7209 13.3343C22.4843 13.4715 22.2881 13.6688 22.1522 13.9063V13.9063Z" stroke="#E8F1F2" stroke-width="2" stroke-linecap="round" stroke-linejoin="round"/>
<path d="M23.5 28.3594C23.9315 28.3594 24.2812 28.0096 24.2812 27.5781C24.2812 27.1467 23.9315 26.7969 23.5 26.7969C23.0685 26.7969 22.7188 27.1467 22.7188 27.5781C22.7188 28.0096 23.0685 28.3594 23.5 28.3594Z" fill="#E8F1F2"/>
</svg>
