<svg width="37" height="37" viewBox="0 0 37 37" fill="none" xmlns="http://www.w3.org/2000/svg">
<path d="M18.5 36.2128L0 27.1596V9.05319L18.5 0L37 9.05319V27.1596L18.5 36.2128Z" fill="#13293D"/>
<path d="M17.6193 11.4545V26H15.858V13.3011H15.7727L12.2216 15.6591V13.8693L15.858 11.4545H17.6193ZM24.8423 17.875C24.241 17.875 23.6918 17.7282 23.1946 17.4347C22.7022 17.1411 22.3092 16.7481 22.0156 16.2557C21.7221 15.7585 21.5753 15.2093 21.5753 14.608C21.5753 14.0066 21.7221 13.4598 22.0156 12.9673C22.3092 12.4702 22.7022 12.0748 23.1946 11.7812C23.6918 11.4877 24.241 11.3409 24.8423 11.3409C25.4437 11.3409 25.9905 11.4877 26.483 11.7812C26.9801 12.0748 27.3755 12.4702 27.669 12.9673C27.9626 13.4598 28.1094 14.0066 28.1094 14.608C28.1094 15.2093 27.9626 15.7585 27.669 16.2557C27.3755 16.7481 26.9801 17.1411 26.483 17.4347C25.9905 17.7282 25.4437 17.875 24.8423 17.875ZM24.8423 16.4545C25.1832 16.4545 25.4934 16.3717 25.7727 16.206C26.0521 16.0402 26.2746 15.8177 26.4403 15.5384C26.6061 15.259 26.6889 14.9489 26.6889 14.608C26.6889 14.267 26.6061 13.9569 26.4403 13.6776C26.2746 13.3982 26.0521 13.1757 25.7727 13.0099C25.4934 12.8442 25.1832 12.7614 24.8423 12.7614C24.5014 12.7614 24.1913 12.8442 23.9119 13.0099C23.6326 13.1757 23.41 13.3982 23.2443 13.6776C23.0786 13.9569 22.9957 14.267 22.9957 14.608C22.9957 14.9489 23.0786 15.259 23.2443 15.5384C23.41 15.8177 23.6326 16.0402 23.9119 16.206C24.1913 16.3717 24.5014 16.4545 24.8423 16.4545Z" fill="white"/>
</svg>
