<svg width="37" height="37" viewBox="0 0 37 37" fill="none" xmlns="http://www.w3.org/2000/svg">
<path d="M18.5 36.2128L0 27.1596V9.05319L18.5 0L37 9.05319V27.1596L18.5 36.2128Z" fill="#13293D"/>
<path d="M12.5057 26V24.7216L17.3068 19.4659C17.8703 18.8504 18.3343 18.3153 18.6989 17.8608C19.0634 17.4015 19.3333 16.9706 19.5085 16.5682C19.6884 16.161 19.7784 15.7348 19.7784 15.2898C19.7784 14.7784 19.6553 14.3357 19.4091 13.9616C19.1676 13.5876 18.8362 13.2988 18.4148 13.0952C17.9934 12.8916 17.5199 12.7898 16.9943 12.7898C16.4356 12.7898 15.9479 12.9058 15.5312 13.1378C15.1193 13.3651 14.7997 13.6847 14.5724 14.0966C14.3499 14.5085 14.2386 14.9915 14.2386 15.5455H12.5625C12.5625 14.6932 12.759 13.9451 13.152 13.3011C13.545 12.6572 14.08 12.1553 14.7571 11.7955C15.4389 11.4356 16.2036 11.2557 17.0511 11.2557C17.9034 11.2557 18.6586 11.4356 19.3168 11.7955C19.9749 12.1553 20.491 12.6406 20.8651 13.2514C21.2391 13.8622 21.4261 14.5417 21.4261 15.2898C21.4261 15.8248 21.3291 16.348 21.1349 16.8594C20.9455 17.366 20.6141 17.9318 20.1406 18.5568C19.6719 19.1771 19.0208 19.9347 18.1875 20.8295L14.9205 24.3239V24.4375H21.6818V26H12.5057ZM27.6548 17.875C27.0535 17.875 26.5043 17.7282 26.0071 17.4347C25.5147 17.1411 25.1217 16.7481 24.8281 16.2557C24.5346 15.7585 24.3878 15.2093 24.3878 14.608C24.3878 14.0066 24.5346 13.4598 24.8281 12.9673C25.1217 12.4702 25.5147 12.0748 26.0071 11.7812C26.5043 11.4877 27.0535 11.3409 27.6548 11.3409C28.2562 11.3409 28.803 11.4877 29.2955 11.7812C29.7926 12.0748 30.188 12.4702 30.4815 12.9673C30.7751 13.4598 30.9219 14.0066 30.9219 14.608C30.9219 15.2093 30.7751 15.7585 30.4815 16.2557C30.188 16.7481 29.7926 17.1411 29.2955 17.4347C28.803 17.7282 28.2562 17.875 27.6548 17.875ZM27.6548 16.4545C27.9957 16.4545 28.3059 16.3717 28.5852 16.206C28.8646 16.0402 29.0871 15.8177 29.2528 15.5384C29.4186 15.259 29.5014 14.9489 29.5014 14.608C29.5014 14.267 29.4186 13.9569 29.2528 13.6776C29.0871 13.3982 28.8646 13.1757 28.5852 13.0099C28.3059 12.8442 27.9957 12.7614 27.6548 12.7614C27.3139 12.7614 27.0038 12.8442 26.7244 13.0099C26.4451 13.1757 26.2225 13.3982 26.0568 13.6776C25.8911 13.9569 25.8082 14.267 25.8082 14.608C25.8082 14.9489 25.8911 15.259 26.0568 15.5384C26.2225 15.8177 26.4451 16.0402 26.7244 16.206C27.0038 16.3717 27.3139 16.4545 27.6548 16.4545Z" fill="white"/>
</svg>
